<svg width="41" height="24" viewBox="0 0 41 24" fill="none" xmlns="http://www.w3.org/2000/svg">
<g clip-path="url(#clip0_4_119)">
<path d="M40.1212 23.0015C38.6662 23.3714 37.7662 23.0177 36.9589 21.8054L31.2163 13.8604L30.3862 12.7603L23.68 21.8318C22.9138 22.9232 22.1101 23.3978 20.68 23.0117L29.2675 11.4841L21.2725 1.07141C22.6474 0.804104 23.5975 0.940005 24.4411 2.17151L30.3973 10.2154L36.3973 2.21531C37.1659 1.12391 37.9924 0.709304 39.3724 1.11131L36.2725 5.22132L32.0725 10.69C31.5724 11.3149 31.6411 11.7427 32.1013 12.346L40.1212 23.0015ZM0.131416 11.2915L0.833718 7.83642C2.74622 0.998805 10.5837 -1.8425 15.9889 2.38241C19.1476 4.86731 19.9327 8.38242 19.7764 12.3199H1.97132C1.70402 19.4075 6.80523 23.6849 13.3086 21.5027C15.5899 20.7365 16.9336 18.95 17.6062 16.7152C17.9476 15.5953 18.5122 15.4201 19.5649 15.7402C19.0276 18.5353 17.815 20.8703 15.2524 22.3316C11.4237 24.5189 5.95833 23.8115 3.08372 20.7716C1.37102 19.0075 0.663617 16.7728 0.346216 14.3827C0.296116 13.9876 0.196216 13.6114 0.121216 13.2328C0.127816 12.586 0.131416 11.9395 0.131416 11.2927V11.2915ZM2.00372 10.8166H18.0937C17.9887 5.69172 14.7976 2.05151 10.4361 2.02061C5.64873 1.98311 2.21102 5.53662 2.00342 10.8166H2.00372Z" fill="white"/>
</g>
<defs>
<clipPath id="clip0_4_119">
<rect width="40" height="23.2066" fill="white" transform="translate(0.121216 0.396729)"/>
</clipPath>
</defs>
</svg>
