<svg width="15" height="20" viewBox="0 0 15 20" fill="none" xmlns="http://www.w3.org/2000/svg">
<g clip-path="url(#clip0_4_298)">
<path d="M7.32263 9.63785C7.32263 7.99682 8.65628 6.66689 10.3006 6.66689H10.7313C10.743 6.66728 10.7559 6.6665 10.7681 6.6665C12.613 6.6665 14.109 8.15959 14.109 10.0001C14.109 11.8406 12.613 13.3333 10.7681 13.3333C10.7559 13.3333 10.743 13.3329 10.7309 13.3329L10.3006 13.3333C8.65628 13.3333 7.32263 12.0026 7.32263 10.362V9.63785Z" fill="white"/>
<path d="M0.572998 16.6672C0.572998 14.8263 2.069 13.3333 3.91397 13.3333L7.32262 13.3336V16.6329C7.32262 18.4929 5.79453 20 3.9304 20C2.08582 20 0.572998 18.5077 0.572998 16.6672Z" fill="white"/>
<path d="M7.32263 0.00039035V6.6668H10.7313C10.743 6.66641 10.7559 6.66719 10.7681 6.66719C12.613 6.66719 14.109 5.1741 14.109 3.33359C14.109 1.4927 12.613 0 10.7681 0C10.7559 0 10.743 0.00039035 10.7309 0.00039035H7.32263Z" fill="#D9D9D9"/>
<path d="M0.572998 3.3333C0.572998 5.17419 2.069 6.66689 3.91397 6.66689H7.32262V0.000488281H3.91358C2.069 0.000488281 0.572998 1.4928 0.572998 3.3333Z" fill="white"/>
<path d="M0.572998 10C0.572998 11.8409 2.069 13.3336 3.91397 13.3336H7.32262V6.66724H3.91358C2.069 6.66724 0.572998 8.15955 0.572998 10Z" fill="#C2BFBF"/>
</g>
<defs>
<clipPath id="clip0_4_298">
<rect width="13.536" height="20" fill="white" transform="translate(0.572998)"/>
</clipPath>
</defs>
</svg>
