<svg width="25" height="24" viewBox="0 0 25 24" fill="none" xmlns="http://www.w3.org/2000/svg">
<g clip-path="url(#clip0_4_203)">
<path d="M12.3576 0C5.53106 0 0.00244141 5.5056 0.00244141 12.3037C0.00244141 17.7483 3.53906 22.3465 8.45008 23.976C9.06763 24.084 9.29881 23.7149 9.29881 23.3919C9.29881 23.0998 9.28389 22.1315 9.28389 21.1001C6.18004 21.6693 5.37754 20.3468 5.13059 19.6556C4.99082 19.3014 4.38933 18.209 3.8628 17.9169C3.43095 17.6858 2.81301 17.1166 3.84784 17.1017C4.82118 17.0869 5.51644 17.9939 5.74848 18.3631C6.86033 20.2245 8.63641 19.7005 9.34663 19.3772C9.45411 18.5781 9.77843 18.0397 10.1342 17.7316C7.38479 17.4247 4.51327 16.3633 4.51327 11.6568C4.51327 10.3194 4.9914 9.21214 5.77893 8.35084C5.65529 8.04277 5.22344 6.78142 5.90258 5.08978C5.90258 5.08978 6.93712 4.76681 9.30064 6.35108C10.2892 6.07392 11.3386 5.93594 12.3893 5.93594C13.439 5.93594 14.4896 6.07512 15.4779 6.35108C17.8414 4.75167 18.875 5.08978 18.875 5.08978C19.555 6.78113 19.122 8.04277 18.9987 8.35084C19.7862 9.21214 20.2653 10.3033 20.2653 11.6568C20.2653 16.3781 17.3773 17.4235 14.6283 17.7316C15.0762 18.1168 15.4621 18.855 15.4621 20.0083C15.4621 21.6538 15.4472 22.9761 15.4472 23.3913C15.4472 23.7143 15.6792 24.0994 16.2959 23.9766C21.1767 22.3465 24.7124 17.7323 24.7124 12.3037C24.7124 5.5056 19.1838 0 12.3576 0Z" fill="white"/>
</g>
<defs>
<clipPath id="clip0_4_203">
<rect width="24.71" height="24" fill="white" transform="translate(0.00244141)"/>
</clipPath>
</defs>
</svg>
