<svg width="37" height="36" viewBox="0 0 37 36" fill="none" xmlns="http://www.w3.org/2000/svg">
<g clip-path="url(#clip0_4_61)">
<path fill-rule="evenodd" clip-rule="evenodd" d="M0.583923 0H36.5839V36H0.583923V0Z" fill="#F7DF1E"/>
<path fill-rule="evenodd" clip-rule="evenodd" d="M10.0497 30.085L12.8036 28.418C13.3339 29.3613 13.8173 30.1582 14.9775 30.1582C16.0878 30.1582 16.791 29.7246 16.791 28.0313V16.5264H20.1747V28.0781C20.1747 31.582 18.121 33.1758 15.124 33.1758C12.4169 33.1758 10.8466 31.7754 10.0497 30.085ZM22.0117 29.7217L24.7656 28.1279C25.4921 29.3115 26.4326 30.1816 28.0995 30.1816C29.4999 30.1816 30.3964 29.4814 30.3964 28.5147C30.3964 27.3545 29.4794 26.9443 27.9326 26.2676L27.0859 25.9043C24.6454 24.8643 23.0253 23.5605 23.0253 20.8066C23.0253 18.2695 24.9589 16.3359 27.9794 16.3359C30.1298 16.3359 31.6767 17.0859 32.787 19.043L30.1533 20.7334C29.5732 19.6934 28.9462 19.2832 27.9794 19.2832C26.9892 19.2832 26.3593 19.9102 26.3593 20.7334C26.3593 21.7471 26.9863 22.1602 28.4365 22.7871L29.2831 23.1504C32.1601 24.3838 33.7773 25.6406 33.7773 28.4678C33.7773 31.5117 31.3837 33.1787 28.1699 33.1787C25.0322 33.1787 23.0019 31.6787 22.0117 29.7217Z" fill="black"/>
</g>
<defs>
<clipPath id="clip0_4_61">
<rect width="36" height="36" fill="white" transform="translate(0.583923)"/>
</clipPath>
</defs>
</svg>
