<svg width="17" height="36" viewBox="0 0 17 36" fill="none" xmlns="http://www.w3.org/2000/svg">
<g clip-path="url(#clip0_4_133)">
<path d="M8.59591 0.0986328L9.55657 1.90305C9.77257 2.23596 10.0067 2.5308 10.2821 2.80539C11.0864 3.60972 11.8502 4.45212 12.5366 5.35447C14.1641 7.49179 15.2622 9.86537 16.046 12.4323C16.5164 14.0004 16.7715 15.6091 16.7907 17.2356C16.8693 22.0986 15.2023 26.2741 11.8413 29.7442C11.2924 30.2931 10.7052 30.8015 10.0752 31.2537C9.74233 31.2537 9.58465 30.9983 9.44749 30.7634C9.19234 30.3325 9.03574 29.8408 8.95717 29.3516C8.83891 28.763 8.76142 28.1749 8.79976 27.5674V27.2931C8.77276 27.2345 8.47927 0.237143 8.59618 0.0989028V0.0991728L8.59591 0.0986328Z" fill="#599636"/>
<path d="M8.5959 0.0386329C8.55648 -0.0399373 8.51733 0.0194629 8.47764 0.057803C8.49681 0.451464 8.35938 0.802465 8.14472 1.13781C7.90847 1.47072 7.59581 1.72641 7.2818 2.00073C5.53841 3.5103 4.16599 5.33389 3.06682 7.3732C1.6045 10.118 0.850656 13.0594 0.637086 16.1563C0.539345 17.2733 0.990517 21.2151 1.3426 22.3523C2.30326 25.3714 4.02883 27.9014 6.2639 30.097C6.81281 30.6257 7.40006 31.116 8.00756 31.5874C8.18414 31.5874 8.20331 31.43 8.24355 31.3128C8.3205 31.0623 8.38017 30.8063 8.42013 30.5476L8.81379 27.6073L8.59563 0.0386329H8.5959Z" fill="#6CAC48"/>
<path d="M9.55656 32.4479C9.59598 31.9978 9.81198 31.6244 10.0472 31.2521C9.8109 31.1544 9.6354 30.9597 9.49824 30.7426C9.37998 30.5469 9.28224 30.3117 9.20583 30.0957C8.93124 29.2722 8.87292 28.4082 8.79408 27.5669V27.0574C8.69634 27.1359 8.67582 27.802 8.67582 27.9011C8.62101 28.7881 8.49924 29.6777 8.32266 30.5485C8.26407 30.9016 8.22492 31.2537 8.00757 31.5675C8.00757 31.6069 8.00757 31.646 8.02674 31.7049C8.3799 32.7444 8.47683 33.8028 8.53623 34.8817V35.2754C8.53623 35.7455 8.51706 35.6464 8.90748 35.804C9.06489 35.8626 9.24039 35.8826 9.3978 35.9998C9.51606 35.9998 9.53523 35.9021 9.53523 35.8232L9.47664 35.1763V33.3719C9.45747 33.0568 9.51606 32.7441 9.55521 32.4496L9.55656 32.4479Z" fill="#C2BFBF"/>
</g>
<defs>
<clipPath id="clip0_4_133">
<rect width="16.1698" height="36" fill="white" transform="translate(0.623596)"/>
</clipPath>
</defs>
</svg>
