<svg width="33" height="36" viewBox="0 0 33 36" fill="none" xmlns="http://www.w3.org/2000/svg">
<path fill-rule="evenodd" clip-rule="evenodd" d="M20.2355 25.5117C14.464 25.5117 13.254 22.8633 13.254 20.6396C13.254 20.4287 13.424 20.2588 13.6349 20.2588H15.34C15.5275 20.2588 15.6857 20.3965 15.715 20.5811C15.9728 22.3184 16.7374 23.1943 20.2296 23.1943C23.0099 23.1943 24.1906 22.5674 24.1906 21.0908C24.1906 20.2412 23.8536 19.6113 19.5353 19.1895C15.923 18.832 13.6906 18.0381 13.6906 15.1465C13.6906 12.4863 15.9347 10.9014 19.6964 10.9014C23.921 10.9014 26.0128 12.3662 26.2765 15.5186C26.2853 15.627 26.2472 15.7324 26.174 15.8115C26.1007 15.8877 25.9982 15.9346 25.8927 15.9346H24.1818C24.0031 15.9346 23.8478 15.8086 23.8126 15.6387C23.3995 13.8135 22.4034 13.2275 19.6906 13.2275C16.6554 13.2275 16.3038 14.2852 16.3038 15.0762C16.3038 16.0371 16.7199 16.3184 20.8156 16.8604C24.8702 17.3994 26.795 18.1582 26.795 21.0088C26.795 23.8828 24.3986 25.5293 20.2179 25.5293L20.2355 25.5117ZM16.1603 36C15.6769 36 15.1993 35.874 14.7775 35.6309L10.3741 33.0234C9.71497 32.6543 10.0372 32.5254 10.254 32.4492C11.13 32.1416 11.3087 32.0742 12.2462 31.541C12.3458 31.4854 12.4747 31.5059 12.5743 31.5645L15.9581 33.5713C16.0812 33.6387 16.254 33.6387 16.3683 33.5713L29.5607 25.957C29.6837 25.8867 29.7628 25.7461 29.7628 25.5996V10.3799C29.7628 10.2275 29.6837 10.0928 29.5577 10.0166L16.3683 2.4082C16.2452 2.33496 16.0841 2.33496 15.9611 2.4082L2.77747 10.0166C2.64856 10.0898 2.56946 10.2305 2.56946 10.377V25.5996C2.56946 25.7461 2.64856 25.8838 2.77454 25.9541L6.38684 28.04C8.3468 29.0215 9.54797 27.8643 9.54797 26.7041V11.6777C9.54797 11.4639 9.71496 11.2969 9.93176 11.2969H11.6017C11.8097 11.2969 11.9825 11.4609 11.9825 11.6777V26.71C11.9825 29.3262 10.5558 30.8262 8.07727 30.8262C7.31555 30.8262 6.71204 30.8262 5.03625 30L1.57043 28.0049C0.714966 27.5098 0.187622 26.5869 0.187622 25.5996V10.377C0.187622 9.38672 0.714966 8.46094 1.57043 7.97168L14.7745 0.354492C15.6095 -0.117188 16.7198 -0.117188 17.549 0.354492L30.7384 7.97461C31.5909 8.4668 32.1212 9.38672 32.1212 10.3799V25.6025C32.1212 26.5898 31.5909 27.5098 30.7384 28.0078L17.549 35.625C17.1271 35.8682 16.6466 35.9941 16.1603 35.9941V36Z" fill="#689F63"/>
</svg>
