<svg width="36" height="36" viewBox="0 0 36 36" fill="none" xmlns="http://www.w3.org/2000/svg">
<g clip-path="url(#clip0_4_139)">
<path d="M34.0541 22.1339C29.7621 23.0186 29.4662 21.5655 29.4662 21.5655C33.9984 14.8419 35.891 6.30476 34.2562 4.21589C29.7973 -1.48235 22.0775 1.21296 21.9486 1.28328L21.9047 1.28914C21.058 1.11335 20.1088 1.00789 19.0424 0.990307C17.1 0.958081 15.6264 1.50007 14.5101 2.34675C14.5101 2.34675 0.737683 -3.32805 1.37928 9.48347C1.51698 12.2081 5.28456 30.1026 9.78163 24.6973C11.4252 22.7198 13.0131 21.0499 13.0131 21.0499C13.8012 21.5743 14.7474 21.8409 15.7348 21.7442L15.8109 21.6798C15.7875 21.9259 15.7992 22.1661 15.8402 22.4503C14.683 23.7452 15.0228 23.9708 12.7055 24.4483C10.3617 24.9317 11.7387 25.7901 12.6381 26.0157C13.7279 26.2882 16.2474 26.6749 17.9525 24.2901L17.8851 24.5626C18.3392 24.9259 18.6586 26.9268 18.6058 28.7403C18.5531 30.5538 18.518 31.7989 18.8754 32.7716C19.2328 33.7442 19.5902 35.9327 22.6342 35.2794C25.1771 34.7344 26.4955 33.3223 26.6801 30.9669C26.809 29.2911 27.1049 29.5401 27.1224 28.043L27.3598 27.3341C27.6322 25.0636 27.4037 24.3311 28.9711 24.671L29.3519 24.7032C30.5062 24.7559 32.015 24.5186 32.8998 24.1055C34.8012 23.2237 35.9349 21.7442 34.0541 22.1339Z" fill="#336791"/>
<path d="M17.6068 23.4199C17.6156 23.127 17.8588 22.8955 18.1518 22.9043C18.4447 22.9131 18.6762 23.1562 18.6674 23.4492C18.6059 25.626 18.6176 27.8086 18.6967 29.5547C18.7699 31.1279 18.8959 32.3115 19.0717 32.751C19.2592 33.2168 19.5492 33.9053 20.1059 34.3711C20.6479 34.8281 21.4828 35.1064 22.8129 34.8223C23.976 34.5732 24.7582 34.2187 25.2797 33.6768C25.7953 33.1406 26.0883 32.3818 26.2699 31.3213C26.4047 30.5479 26.5893 29.1973 26.7563 27.8525C26.9672 26.1709 27.1606 24.4717 27.2016 23.9238C27.2221 23.6309 27.477 23.4111 27.7699 23.4346C28.0629 23.4551 28.2826 23.71 28.2592 24.0029C28.2182 24.5361 28.0248 26.2559 27.8051 27.9873C27.6293 29.376 27.4418 30.7529 27.3129 31.5C27.0932 32.7686 26.7211 33.7031 26.0385 34.4121C25.3588 35.1182 24.4067 35.5635 23.0268 35.8594C21.3129 36.2256 20.182 35.8242 19.4174 35.1797C18.6645 34.5469 18.307 33.709 18.0815 33.1436C17.8588 32.5898 17.7094 31.2832 17.6303 29.5986C17.5541 27.8379 17.5453 25.626 17.6068 23.4199Z" fill="white"/>
<path d="M14.683 1.76082C14.9555 1.86922 15.0873 2.17684 14.9789 2.4493C14.8705 2.72176 14.5629 2.8536 14.2904 2.7452C14.2553 2.73055 1.27677 -2.57219 1.87736 9.40438C1.9506 10.8839 3.12248 16.9366 4.90373 21.1583C5.46623 22.4884 6.08439 23.6251 6.74064 24.3516C7.28849 24.961 7.84806 25.254 8.38712 25.0606C8.68595 24.9522 9.00529 24.7091 9.3422 24.3048C10.9916 22.3214 12.4916 20.754 12.4975 20.7511C12.6996 20.5401 13.0336 20.5313 13.2445 20.7335C13.4555 20.9356 13.4643 21.2696 13.2621 21.4805C13.2592 21.4835 11.7943 23.0098 10.1567 24.9815C9.69083 25.544 9.21623 25.8927 8.73869 26.0626C7.72501 26.4229 6.79337 26.0011 5.94962 25.0636C5.21134 24.2462 4.53165 23.0069 3.92814 21.5684C2.09708 17.2354 0.892983 10.9893 0.816811 9.45418C0.134194 -4.18644 14.642 1.74324 14.683 1.76082Z" fill="white"/>
<path d="M22.2094 1.67876L21.4213 0.81743C21.4858 0.793993 21.5502 0.773485 21.6147 0.755907C21.7875 0.700243 21.975 0.644579 22.1772 0.585985C22.4731 0.498094 22.9067 0.383837 23.4369 0.281298C26.0825 -0.231398 31.2446 -0.509718 34.6459 3.83794C35.6069 5.06548 35.5278 8.10356 34.5346 11.7012C33.6557 14.8858 32.0707 18.5567 29.8793 21.8086C29.7153 22.0518 29.3842 22.1163 29.1411 21.9522C28.8979 21.7881 28.8334 21.4571 28.9975 21.2139C31.1244 18.0586 32.6596 14.4991 33.5121 11.417C34.4203 8.12993 34.5639 5.44927 33.811 4.48833C30.7582 0.588914 26.0502 0.852587 23.6332 1.32427C23.1381 1.42095 22.7426 1.52348 22.4731 1.60259L22.2094 1.67876Z" fill="white"/>
<path d="M29.9408 21.3487C29.9467 21.3633 29.9496 21.378 29.9525 21.3926C29.9525 21.3956 30.1342 22.3419 33.9164 21.5626C34.4525 21.4512 34.8334 21.4747 35.0795 21.5948C35.3988 21.7471 35.5365 22.002 35.516 22.3301C35.5043 22.5294 35.4105 22.7432 35.2553 22.9571C34.8979 23.4464 34.0805 24.0792 33.0873 24.5391C32.3432 24.8848 31.2094 25.1163 30.1693 25.1749C29.557 25.21 28.9711 25.1866 28.5053 25.0928C27.9193 24.9757 27.474 24.7325 27.2895 24.337C27.2397 24.2315 27.2104 24.1173 27.2045 23.9942C27.0873 21.9376 28.0893 21.5772 28.7895 21.378C28.7162 21.2725 28.6166 21.1466 28.5053 21.0089C28.1508 20.5665 27.6967 19.9981 27.3363 19.128C27.2807 18.9962 27.1195 18.7032 26.9027 18.3165C25.9857 16.6729 24.1811 13.4327 24.5355 11.2208C24.7875 9.64167 25.9916 8.59284 29.0004 8.90632L28.9711 8.81843C28.8275 8.4112 28.599 7.878 28.268 7.28034C26.9555 4.88972 24.0932 1.55573 19.0102 1.4737C11.2553 1.34772 11.5102 11.127 11.5102 11.1534C11.516 11.4464 11.2816 11.6866 10.9887 11.6924C10.6957 11.6983 10.4555 11.4639 10.4496 11.171C10.4496 11.1387 10.1625 0.269598 19.0248 0.413153C24.6205 0.503973 27.7611 4.15436 29.1967 6.76764C29.5541 7.41804 29.809 8.00983 29.9701 8.46979C30.1518 8.98542 30.2191 9.38972 30.1898 9.56843C30.1488 9.8321 30.0023 9.99616 29.7504 10.046L29.56 10.0489C26.8002 9.60651 25.7572 10.2833 25.5814 11.3848C25.2855 13.2393 26.973 16.2628 27.8285 17.8008C28.06 18.2169 28.2357 18.5333 28.3148 18.7266C28.6195 19.462 29.018 19.96 29.3285 20.3526C29.6186 20.7071 29.8471 20.9942 29.9408 21.3487ZM34.1303 22.5997C31.3266 23.1798 30.0199 22.7549 29.4193 22.2979C29.3373 22.3243 29.2494 22.3477 29.1557 22.3741C28.7807 22.4796 28.1977 22.6436 28.2592 23.9034C28.3031 23.9503 28.4672 24.0001 28.7074 24.0499C29.0912 24.126 29.5834 24.1436 30.1078 24.1143C31.0248 24.0616 32.0121 23.8653 32.642 23.5723C33.2895 23.2706 33.8314 22.9073 34.1654 22.5909L34.1303 22.5997Z" fill="white"/>
<path d="M16.2035 22.755C15.9867 22.9981 15.808 23.2237 15.6557 23.4171C15.0053 24.2432 14.8032 24.5011 12.7846 24.9171C12.4213 24.9932 12.1752 25.0665 12.0229 25.1397C12.2104 25.2745 12.4916 25.3858 12.7377 25.4474C13.2358 25.5733 14.0619 25.7227 14.9467 25.5733C15.808 25.4268 16.7367 24.9845 17.4897 23.9298C17.5131 23.8946 17.5336 23.8565 17.5512 23.8184C17.6274 23.6339 17.6098 23.4024 17.5336 23.1827C17.4516 22.9483 17.3022 22.7432 17.1293 22.6173C17.0883 22.588 17.0473 22.5645 17.0033 22.547L16.977 22.5352C16.8686 22.4913 16.7485 22.4444 16.6459 22.4532C16.5346 22.4649 16.394 22.5411 16.2035 22.755ZM14.8207 22.7579C14.9643 22.5763 15.1313 22.3653 15.3832 22.0811C15.4037 22.0548 15.4272 22.0284 15.4506 22.005C15.8403 21.5831 16.2123 21.4249 16.5551 21.3956C16.8949 21.3663 17.1586 21.463 17.3813 21.5567C17.3901 21.5597 17.3989 21.5626 17.4106 21.5684C17.5248 21.6153 17.6362 21.6798 17.7446 21.7559C18.0932 22.005 18.3803 22.4005 18.5356 22.8311C18.6938 23.2794 18.7201 23.7804 18.5326 24.2257C18.4858 24.337 18.4272 24.4425 18.3539 24.545C17.4047 25.8751 16.2211 26.4317 15.1254 26.6192C14.0502 26.8038 13.0717 26.6251 12.4799 26.4786C12.0492 26.3702 11.516 26.13 11.2026 25.837C11.018 25.6641 10.892 25.4591 10.8569 25.2306C10.8158 24.9581 10.8979 24.6944 11.1469 24.46C11.3871 24.2345 11.8324 24.0294 12.5678 23.877C14.2055 23.5401 14.352 23.3556 14.8207 22.7579Z" fill="white"/>
<path d="M16.2592 22.295C16.3031 22.585 16.1039 22.8575 15.8139 22.8985C15.5238 22.9395 15.2514 22.7432 15.2104 22.4532C15.1986 22.3829 15.1928 22.3125 15.1869 22.2393C15.0111 22.2334 14.8383 22.2217 14.6684 22.1954C13.5317 22.0372 12.5033 21.4629 11.7299 20.6133C10.9652 19.7754 10.4496 18.668 10.3295 17.4317C10.2856 16.9922 10.2943 16.5352 10.3588 16.0752C10.6195 14.2178 10.5199 12.5567 10.4701 11.6954C10.4555 11.461 10.4467 11.2852 10.4467 11.1504C10.4496 10.8018 11.3256 10.0342 12.4799 9.55961C13.0014 9.34575 13.5844 9.16704 14.1615 9.07915C14.7709 8.98833 15.3861 8.99711 15.9399 9.16997C16.807 9.44243 17.4955 10.084 17.7592 11.3116C18.7113 15.709 17.8588 17.5987 17.1938 19.0782C17.0795 19.3331 16.9711 19.5733 16.8891 19.7901C16.8861 19.8047 16.8803 19.8165 16.8744 19.8311C16.5961 20.5811 17.0033 19.4825 16.7924 20.042C16.4613 20.9444 16.1713 21.7178 16.2592 22.295ZM15.3012 21.1817C15.4154 20.71 15.6029 20.212 15.8022 19.6758C15.9604 19.254 15.5473 20.3584 15.8783 19.4649C15.8842 19.4502 15.8901 19.4356 15.8959 19.4209C15.9984 19.1485 16.1098 18.9053 16.224 18.6475C16.8275 17.3086 17.5951 15.5977 16.7192 11.543C16.5492 10.7549 16.1361 10.3506 15.6205 10.1895C15.2338 10.0694 14.7797 10.0665 14.3139 10.1368C13.8158 10.2129 13.3178 10.3653 12.8725 10.5469C12.0902 10.8663 11.4984 11.1358 11.4984 11.1592C11.4984 11.2354 11.5072 11.4082 11.5219 11.6397C11.5746 12.5332 11.6772 14.2647 11.4047 16.2276C11.352 16.6114 11.3432 16.9834 11.3783 17.3409C11.475 18.337 11.891 19.2305 12.5092 19.9073C13.1186 20.5752 13.9242 21.0293 14.809 21.1524C14.9731 21.17 15.1371 21.1817 15.3012 21.1817Z" fill="white"/>
<path d="M14.4369 11.0802C14.4135 11.253 14.7563 11.7188 15.2016 11.7804C15.6469 11.8419 16.0307 11.4786 16.0541 11.3058C16.0775 11.1329 15.7348 10.9395 15.2895 10.878C14.8442 10.8165 14.4604 10.9073 14.4369 11.0802Z" fill="white"/>
<path d="M14.6127 11.1035C14.6068 11.1416 14.6684 11.2412 14.7709 11.3496C14.8852 11.4698 15.0463 11.5782 15.225 11.6045H15.2279C15.4037 11.628 15.5678 11.5694 15.6908 11.4844C15.8051 11.4082 15.8754 11.3262 15.8842 11.2793C15.8842 11.2705 15.8402 11.2442 15.767 11.2032C15.6469 11.1358 15.4711 11.0801 15.269 11.0508H15.2631C15.0639 11.0244 14.8793 11.0303 14.7475 11.0625C14.6654 11.083 14.6127 11.0977 14.6127 11.1035ZM14.516 11.5928C14.3432 11.4112 14.2465 11.1944 14.2641 11.0596V11.0537C14.2875 10.8867 14.4369 10.7725 14.6654 10.7168C14.8383 10.6758 15.0668 10.667 15.31 10.6992C15.3129 10.6992 15.3158 10.6992 15.3188 10.6992C15.5649 10.7344 15.7846 10.8047 15.9399 10.8926C16.1449 11.0069 16.2592 11.1621 16.2357 11.3262C16.2182 11.4551 16.0863 11.6426 15.89 11.7744C15.7055 11.9004 15.4535 11.9912 15.1811 11.9532H15.1781C14.9086 11.918 14.6772 11.7627 14.516 11.5928Z" fill="white"/>
<path d="M28.0424 10.7257C28.0658 10.8985 27.7231 11.3644 27.2777 11.4259C26.8295 11.4874 26.4486 11.1241 26.4252 10.9513C26.4018 10.7784 26.7445 10.5851 27.1928 10.5235C27.6352 10.462 28.016 10.5528 28.0424 10.7257Z" fill="white"/>
<path d="M28.1274 10.7139C28.142 10.8252 28.0541 11.0156 27.8988 11.1797C27.7494 11.3379 27.5326 11.4814 27.2865 11.5137H27.2836C27.0375 11.5459 26.809 11.4639 26.6391 11.3496C26.4633 11.2324 26.349 11.0713 26.3315 10.9629C26.3139 10.8369 26.4106 10.7139 26.5834 10.6172C26.7299 10.5352 26.9379 10.4678 27.1723 10.4355C27.4066 10.4033 27.6264 10.4121 27.7904 10.4502C27.9838 10.4941 28.1098 10.585 28.1274 10.7139ZM27.7699 11.0566C27.89 10.9307 27.9604 10.8018 27.9516 10.7373C27.9457 10.6904 27.8695 10.6494 27.7524 10.6201C27.6088 10.585 27.4125 10.5791 27.1986 10.6084C26.9877 10.6377 26.8002 10.6992 26.6713 10.7695C26.5658 10.8281 26.5043 10.8896 26.5102 10.9365C26.519 11.001 26.6068 11.1094 26.7416 11.2002C26.8793 11.2939 27.0668 11.3613 27.266 11.335H27.269C27.4652 11.3086 27.644 11.1885 27.7699 11.0566Z" fill="white"/>
<path d="M29.1088 9.54792C29.0941 9.25495 29.3197 9.00592 29.6127 8.99128C29.9057 8.97663 30.1547 9.20221 30.1693 9.49518C30.2133 10.3155 30.1137 10.9659 30.0082 11.6485C29.9291 12.1583 29.8471 12.6915 29.8295 13.2862C29.8119 13.8516 29.8852 14.4786 29.9643 15.1231C30.1693 16.8194 30.3861 18.6358 29.1264 20.5137C28.9623 20.7569 28.6342 20.8214 28.391 20.6602C28.1479 20.4962 28.0834 20.168 28.2445 19.9249C29.2816 18.3751 29.0883 16.7608 28.9066 15.2491C28.8246 14.5753 28.7455 13.919 28.7689 13.2569C28.7895 12.5714 28.8744 12.0235 28.9564 11.4932C29.0561 10.8546 29.1469 10.251 29.1088 9.54792Z" fill="white"/>
</g>
<defs>
<clipPath id="clip0_4_139">
<rect width="34.7256" height="36" fill="white" transform="translate(0.793396)"/>
</clipPath>
</defs>
</svg>
