<svg width="41" height="36" viewBox="0 0 41 36" fill="none" xmlns="http://www.w3.org/2000/svg">
<g clip-path="url(#clip0_4_75)">
<path fill-rule="evenodd" clip-rule="evenodd" d="M40.6124 18.0049C40.6124 15.3271 37.2601 12.7906 32.1182 11.2148C33.3058 5.97423 32.7761 1.80609 30.4535 0.470438C29.9173 0.157909 29.2923 0.00986932 28.608 0.00986932V1.84885C28.9863 1.84885 29.2923 1.92452 29.5489 2.06269C30.6707 2.70419 31.1543 5.15179 30.7759 8.3001C30.6838 9.0732 30.5358 9.88906 30.3549 10.7214C28.7396 10.3266 26.9763 10.0207 25.1241 9.82327C24.0122 8.3001 22.8575 6.91511 21.6962 5.70447C24.3806 3.20424 26.9006 1.83898 28.6146 1.83898V0C26.3479 0 23.3838 1.61528 20.3835 4.41817C17.3833 1.63173 14.4192 0.0328977 12.1525 0.0328977V1.87188C13.8566 1.87188 16.3865 3.23056 19.0742 5.71105C17.9195 6.92169 16.7681 8.29681 15.6726 9.82327C13.8106 10.0207 12.0473 10.3266 10.432 10.728C10.2412 9.90551 10.103 9.1061 10.0043 8.33958C9.61612 5.19126 10.0964 2.74367 11.2084 2.0923C11.4551 1.94426 11.7775 1.87846 12.1558 1.87846V0.0427671C11.465 0.0427671 10.8366 0.190807 10.2938 0.503335C7.97781 1.83898 7.45802 6.00055 8.6555 11.2247C3.52345 12.8038 0.187622 15.3336 0.187622 18.0049C0.187622 20.6828 3.5399 23.2192 8.68182 24.795C7.49421 30.0356 8.02386 34.2038 10.3464 35.5394C10.8827 35.852 11.5077 36 12.2019 36C14.4685 36 17.4326 34.3847 20.4329 31.5818C23.4332 34.3683 26.3973 35.9671 28.6639 35.9671C29.3548 35.9671 29.9831 35.8191 30.5259 35.5065C32.8419 34.1709 33.3617 30.0093 32.1642 24.7852C37.2765 23.2126 40.6124 20.6729 40.6124 18.0049ZM24.1569 18.0049C24.1569 15.9258 22.4726 14.2381 20.3901 14.2381C18.311 14.2381 16.6233 15.9225 16.6233 18.0049C16.6233 20.0874 18.3077 21.7717 20.3901 21.7717C22.4726 21.7684 24.1569 20.0841 24.1569 18.0049ZM29.8844 12.5077C29.5785 13.5703 29.2001 14.6658 28.7725 15.7613C28.4336 15.1034 28.0816 14.4421 27.6934 13.7842C27.3151 13.1262 26.9105 12.4814 26.5058 11.8563C27.677 12.0307 28.8054 12.2445 29.8844 12.5077ZM26.111 21.2848C25.4695 22.3968 24.8083 23.4528 24.124 24.4332C22.8969 24.5417 21.6534 24.5976 20.4 24.5976C19.1565 24.5976 17.9129 24.5384 16.6924 24.4397C16.0081 23.4594 15.3403 22.4132 14.6988 21.3079C14.0738 20.2288 13.5046 19.1333 12.9848 18.028C13.4948 16.9226 14.0738 15.8205 14.6889 14.7415C15.3305 13.6295 15.9917 12.5735 16.676 11.5932C17.9031 11.4846 19.1466 11.4287 20.4 11.4287C21.6435 11.4287 22.8871 11.4879 24.1076 11.5866C24.7918 12.5669 25.4597 13.6131 26.1012 14.7185C26.7262 15.7975 27.2954 16.893 27.8151 17.9984C27.2954 19.1004 26.7295 20.2025 26.111 21.2848ZM28.7725 20.2124C29.2166 21.3177 29.5949 22.4198 29.9107 23.4923C28.8317 23.7555 27.6934 23.9792 26.5157 24.1502C26.9203 23.5153 27.3217 22.8639 27.7033 22.1961C28.0783 21.5382 28.4336 20.8703 28.7725 20.2124ZM20.4164 29.0027C19.6499 28.2131 18.8834 27.3314 18.1268 26.3675C18.867 26.4004 19.6269 26.4268 20.3934 26.4268C21.1665 26.4268 21.933 26.4103 22.6831 26.3675C21.9396 27.3314 21.1731 28.2131 20.4164 29.0027ZM14.2876 24.1502C13.1164 23.9759 11.988 23.762 10.909 23.4989C11.2149 22.4363 11.5933 21.3408 12.0209 20.2453C12.3598 20.9032 12.7118 21.5645 13.1 22.2224C13.4882 22.8837 13.883 23.5252 14.2876 24.1502ZM20.3737 7.00393C21.1402 7.79348 21.9067 8.67513 22.6634 9.63904C21.9232 9.60614 21.1632 9.57982 20.3967 9.57982C19.6236 9.57982 18.8571 9.59627 18.107 9.63904C18.8505 8.67513 19.617 7.79348 20.3737 7.00393ZM14.2777 11.8563C13.8731 12.4913 13.4717 13.1426 13.0901 13.8105C12.7118 14.4684 12.3565 15.1297 12.0177 15.7876C11.5735 14.6823 11.1952 13.5802 10.8794 12.5077C11.9617 12.2511 13.1 12.0307 14.2777 11.8563ZM6.81981 22.1731C3.90178 20.9295 2.01674 19.2978 2.01674 18.0049C2.01674 16.7121 3.90507 15.0705 6.81981 13.8368C7.52711 13.5308 8.3035 13.2611 9.10291 13.0045C9.57335 14.6198 10.1918 16.3008 10.9583 18.0214C10.2017 19.7354 9.5898 21.4066 9.12923 23.0153C8.31336 22.7587 7.53698 22.479 6.81981 22.1731ZM11.2544 33.9472C10.1326 33.3057 9.64901 30.8581 10.0273 27.7098C10.1195 26.9367 10.2675 26.1208 10.4484 25.2885C12.0637 25.6833 13.827 25.9892 15.6792 26.1866C16.7911 27.7098 17.9458 29.0948 19.1071 30.3054C16.4194 32.8023 13.8994 34.1709 12.1854 34.1709C11.8137 34.161 11.5012 34.0886 11.2544 33.9472ZM30.799 27.6703C31.1872 30.8186 30.7069 33.2662 29.5949 33.9176C29.3482 34.0656 29.0258 34.1314 28.6475 34.1314C26.9434 34.1314 24.4135 32.7727 21.7258 30.2922C22.8805 29.0816 24.0319 27.7065 25.1274 26.18C26.9894 25.9826 28.7527 25.6767 30.368 25.272C30.5588 26.1044 30.7069 26.9038 30.799 27.6703ZM33.9703 22.1731C33.263 22.479 32.4866 22.7488 31.6872 23.0054C31.2168 21.3901 30.5983 19.709 29.8318 17.9885C30.5884 16.2745 31.2003 14.6033 31.6609 12.9946C32.4768 13.2512 33.2499 13.5308 33.9769 13.8335C36.8949 15.077 38.78 16.7088 38.78 18.0016C38.7734 19.2978 36.8883 20.9361 33.9703 22.1731Z" fill="#00D8FF"/>
</g>
<defs>
<clipPath id="clip0_4_75">
<rect width="40.4247" height="36" fill="white" transform="translate(0.187622)"/>
</clipPath>
</defs>
</svg>
