<svg width="37" height="36" viewBox="0 0 37 36" fill="none" xmlns="http://www.w3.org/2000/svg">
<g clip-path="url(#clip0_4_66)">
<path fill-rule="evenodd" clip-rule="evenodd" d="M0.583923 18V0H36.5839V36H0.583923V18Z" fill="#007ACC"/>
<path fill-rule="evenodd" clip-rule="evenodd" d="M8.4765 18.0615V19.5292H13.1552V32.8505H16.4775V19.5292H21.1562V18.0878C21.1562 17.2792 21.1562 16.6201 21.121 16.6025C21.121 16.5761 18.2675 16.5673 14.8017 16.5673L8.50287 16.5937V18.0703L8.4765 18.0615ZM29.5087 16.5585C30.4257 16.7753 31.1288 17.1884 31.7587 17.8447C32.0927 18.205 32.5878 18.8349 32.623 18.996C32.623 19.0488 31.0673 20.1035 30.121 20.6894C30.0859 20.7158 29.9423 20.5634 29.7958 20.329C29.3271 19.664 28.8495 19.374 28.1025 19.3212C27.0214 19.248 26.3036 19.8164 26.3036 20.7597C26.3036 21.0468 26.3564 21.2109 26.4648 21.4423C26.7079 21.9374 27.1591 22.2333 28.5536 22.8457C31.1288 23.9531 32.2451 24.6826 32.9189 25.7255C33.6835 26.8945 33.8535 28.7314 33.3408 30.1083C32.7636 31.6113 31.3603 32.6279 29.3535 32.9619C28.7236 33.0703 27.2822 33.0527 26.6083 32.9355C25.1699 32.666 23.79 31.9453 22.9462 31.0195C22.6122 30.6591 21.9736 29.6953 22.0117 29.6337L22.3544 29.4169L23.705 28.6347L24.7216 28.04L24.956 28.3564C25.2519 28.8251 25.9199 29.455 26.3066 29.6718C27.4755 30.2753 29.0429 30.1933 29.8163 29.4931C30.1503 29.1884 30.2939 28.8632 30.2939 28.4121C30.2939 27.999 30.2294 27.8085 30.0244 27.4951C29.7372 27.0996 29.1601 26.7744 27.54 26.0566C25.6767 25.2656 24.8857 24.7617 24.1474 23.9853C23.7255 23.5166 23.3388 22.7871 23.1572 22.1865C23.0224 21.665 22.9785 20.3876 23.1044 19.872C23.4911 18.0732 24.8505 16.8134 26.7958 16.4531C27.4257 16.3271 28.9111 16.3798 29.5322 16.5439L29.5087 16.5585Z" fill="white"/>
</g>
<defs>
<clipPath id="clip0_4_66">
<rect width="36" height="36" fill="white" transform="translate(0.583923)"/>
</clipPath>
</defs>
</svg>
